<?xml version="1.0" standalone="no"?>
<!DOCTYPE svg PUBLIC "-//W3C//DTD SVG 20010904//EN"
 "http://www.w3.org/TR/2001/REC-SVG-20010904/DTD/svg10.dtd">
<svg version="1.0" xmlns="http://www.w3.org/2000/svg"
 width="200.000000pt" height="200.000000pt" viewBox="0 0 200.000000 200.000000"
 preserveAspectRatio="xMidYMid meet">

<g transform="translate(0.000000,200.000000) scale(0.100000,-0.100000)"
fill="#000000" stroke="none">
<path d="M1087 1979 c-21 -30 -23 -89 -3 -89 18 0 46 38 46 60 0 9 -6 24 -13
35 -13 17 -15 17 -30 -6z"/>
<path d="M752 1978 c-16 -16 -15 -50 3 -74 13 -16 16 -17 25 -4 24 37 0 106
-28 78z"/>
<path d="M863 1908 c-17 -23 -23 -47 -14 -70 l8 -21 22 22 c14 14 21 32 19 48
-3 30 -20 40 -35 21z"/>
<path d="M1016 1911 c-10 -15 11 -59 34 -71 18 -10 20 -8 20 18 0 38 -40 77
-54 53z"/>
<path d="M790 1890 c-21 -21 -28 -70 -10 -70 17 0 50 39 50 59 0 30 -17 34
-40 11z"/>
<path d="M1122 1893 c-29 -25 -39 -71 -18 -79 26 -10 56 24 56 63 0 37 -9 41
-38 16z"/>
<path d="M1347 1896 c-17 -43 0 -106 27 -106 33 0 34 60 3 96 -21 24 -24 25
-30 10z"/>
<path d="M590 1876 c0 -26 45 -69 64 -63 21 7 17 37 -8 62 -32 32 -56 33 -56
1z"/>
<path d="M708 1870 c-30 -23 -40 -80 -15 -80 25 0 49 37 45 70 l-3 32 -27 -22z"/>
<path d="M1420 1825 c-17 -20 -17 -72 -1 -88 19 -18 43 20 39 62 -3 39 -19 49
-38 26z"/>
<path d="M1195 1805 c-18 -18 -25 -35 -25 -65 0 -39 1 -40 23 -29 35 18 57 51
57 87 0 40 -20 42 -55 7z"/>
<path d="M1040 1812 c-26 -8 -50 -34 -50 -54 0 -15 5 -18 23 -12 28 8 57 33
57 50 0 17 -11 23 -30 16z"/>
<path d="M920 1790 c-6 -12 -10 -35 -8 -53 l3 -32 23 23 c25 25 31 82 7 82 -8
0 -19 -9 -25 -20z"/>
<path d="M626 1785 c-12 -32 -6 -72 14 -90 20 -18 21 -18 27 3 7 28 11 28 35
-3 13 -16 29 -25 49 -25 37 0 38 22 3 57 -20 20 -32 24 -55 19 -20 -4 -29 -2
-29 8 0 7 -8 21 -19 30 -17 15 -19 15 -25 1z"/>
<path d="M730 1794 c0 -11 23 -49 34 -56 6 -4 19 -8 28 -8 15 0 16 4 7 27 -6
15 -16 31 -22 35 -14 9 -47 11 -47 2z"/>
<path d="M810 1776 c0 -18 38 -46 62 -46 22 0 23 23 2 44 -20 20 -64 21 -64 2z"/>
<path d="M1100 1770 c-23 -23 -27 -70 -7 -70 22 0 47 34 47 63 0 32 -13 34
-40 7z"/>
<path d="M1485 1767 c-10 -8 -15 -19 -11 -25 9 -15 65 -15 86 -2 13 9 12 12
-4 25 -25 19 -47 19 -71 2z"/>
<path d="M546 1753 c-3 -3 -6 -22 -6 -40 0 -42 55 -106 71 -82 14 22 11 62 -7
87 -17 25 -49 44 -58 35z"/>
<path d="M1250 1731 c0 -30 34 -66 52 -55 15 9 8 44 -12 64 -28 28 -40 25 -40
-9z"/>
<path d="M400 1731 c0 -28 47 -61 86 -61 42 0 44 17 8 54 -34 33 -94 37 -94 7z"/>
<path d="M1346 1728 c-19 -27 -21 -68 -3 -68 36 0 68 81 35 88 -9 2 -23 -7
-32 -20z"/>
<path d="M1022 1717 c-28 -30 -30 -77 -3 -77 25 0 41 21 48 64 7 43 -12 49
-45 13z"/>
<path d="M1620 1712 c-37 -37 -41 -77 -7 -67 29 9 69 53 65 73 -5 27 -27 25
-58 -6z"/>
<path d="M857 1713 c-15 -14 -6 -55 16 -77 16 -16 26 -40 30 -75 3 -28 15 -71
26 -96 l20 -45 -20 11 c-25 13 -69 4 -69 -15 0 -24 72 -37 85 -16 4 6 11 8 16
4 5 -3 -5 -15 -23 -28 -36 -23 -51 -66 -24 -66 21 0 56 36 56 57 0 9 3 14 6
10 3 -3 3 -33 -1 -67 -7 -57 -8 -60 -22 -41 -20 29 -43 27 -43 -3 0 -29 27
-59 46 -52 9 3 18 -12 28 -47 17 -59 29 -120 20 -97 -15 37 -64 53 -64 22 0
-23 30 -52 53 -52 14 0 17 -10 17 -52 l0 -51 -21 19 c-12 10 -30 33 -40 49
-11 17 -19 24 -19 17 0 -20 26 -65 49 -86 27 -24 26 -39 -4 -104 -14 -30 -25
-64 -26 -75 -1 -15 -3 -12 -9 10 -4 17 -23 53 -42 80 -35 47 -36 49 -31 123 5
66 9 79 34 104 16 15 29 34 29 40 0 7 5 17 12 24 18 18 20 49 3 55 -7 3 -25
-3 -38 -13 l-24 -19 3 97 c3 54 1 89 -4 79 -7 -16 -12 -11 -35 31 -31 57 -32
62 -13 62 18 0 46 38 46 63 0 34 -43 17 -56 -22 -10 -32 -11 -33 -17 -10 -10
35 -8 51 3 44 15 -9 50 32 50 60 0 30 -13 32 -39 6 -14 -14 -21 -16 -25 -8 -3
7 -4 -23 -2 -65 3 -74 2 -78 -18 -78 -20 1 -20 1 -3 11 18 10 18 12 1 30 -18
20 -59 26 -69 10 -3 -5 5 -17 17 -25 25 -18 17 -22 -12 -6 -28 15 -78 -7 -96
-42 -11 -22 -13 -44 -8 -84 7 -58 2 -64 -30 -37 -12 10 -16 12 -10 5 9 -10 4
-20 -17 -42 -30 -29 -37 -54 -18 -65 18 -11 49 26 49 59 l1 31 24 -28 c14 -15
25 -33 25 -39 0 -7 -7 -3 -15 8 -13 16 -16 17 -25 4 -24 -37 0 -106 28 -78 7
7 12 21 13 32 0 15 5 11 14 -14 21 -54 19 -60 -13 -51 -66 19 -101 46 -155
121 l-17 25 14 -31 c8 -17 22 -36 30 -43 25 -21 19 -36 -18 -49 -19 -7 -39
-19 -46 -27 -10 -12 -7 -17 14 -26 22 -10 33 -9 62 5 30 14 34 19 24 31 -17
21 2 20 48 -4 20 -10 49 -21 63 -24 22 -6 89 -87 108 -131 6 -15 -147 3 -216
26 -39 13 -81 36 -108 60 -25 22 -45 35 -45 30 0 -6 19 -26 41 -46 l41 -35
-28 -6 c-50 -11 -51 -15 -4 -11 49 4 170 -21 170 -35 0 -5 -6 -9 -13 -9 -7 0
-51 -19 -98 -41 -46 -23 -102 -48 -124 -55 -24 -7 -32 -13 -19 -13 11 -1 62
19 114 44 108 53 154 62 234 45 63 -13 116 -52 143 -104 8 -17 25 -39 37 -49
11 -10 15 -16 9 -12 -7 3 -13 3 -13 0 0 -19 25 -102 34 -114 8 -11 8 -13 0 -8
-8 4 -13 -19 -18 -73 -10 -117 -23 -150 -72 -177 -34 -19 -46 -21 -75 -13 -52
15 -64 13 -108 -24 -42 -35 -42 -35 -124 -30 -58 4 -97 0 -132 -10 -45 -14
-46 -15 -12 -12 35 5 37 4 26 -17 -7 -16 -4 -14 11 5 13 17 31 28 45 28 26 0
41 -15 25 -25 -5 -3 -15 -16 -21 -28 -6 -13 1 -8 18 12 27 31 32 33 71 26 23
-4 42 -12 42 -18 0 -6 17 6 38 26 38 37 72 46 102 27 13 -8 12 -11 -5 -24 -11
-9 -25 -16 -30 -16 -6 0 -35 -16 -65 -35 -30 -19 -62 -35 -72 -35 -10 0 -33
-15 -51 -32 -18 -18 -23 -25 -11 -15 12 10 39 22 59 27 39 9 39 9 20 -45 l-7
-20 13 20 c32 54 132 136 146 121 4 -4 -9 -20 -28 -36 -20 -16 -49 -46 -65
-67 -26 -35 -24 -34 31 15 33 29 85 69 115 89 30 20 66 45 79 57 l25 21 -18
-29 c-23 -36 -74 -87 -110 -111 -31 -20 -80 -99 -73 -117 2 -7 13 5 25 28 11
22 42 58 68 79 l47 39 -7 -40 -7 -39 29 45 c16 25 39 54 50 64 12 11 22 25 22
33 0 7 4 13 10 13 12 0 -10 -62 -44 -126 -26 -49 -35 -122 -18 -161 5 -12 9 1
12 40 3 31 9 56 15 55 5 -2 12 11 15 27 4 17 11 29 18 28 7 -2 12 5 12 15 0
10 11 29 24 41 l24 23 7 -85 c4 -46 4 -95 0 -107 -4 -14 -3 -20 3 -16 5 3 12
29 16 57 6 46 9 49 24 38 15 -12 15 -12 0 7 -18 21 -23 50 -12 78 9 23 21 20
30 -6 7 -22 8 -21 14 7 l5 30 19 -39 c10 -22 19 -59 20 -83 1 -38 5 -45 33
-58 40 -19 67 -19 31 1 -28 14 -31 22 -43 99 -4 21 -13 51 -20 65 -7 14 -16
36 -20 50 -8 25 -8 25 14 6 11 -11 21 -25 21 -33 0 -8 4 -11 10 -8 12 7 50
-53 50 -80 0 -11 5 -27 10 -35 6 -10 8 -3 3 22 -5 34 -3 38 15 38 13 0 32 -16
50 -42 17 -24 42 -54 57 -68 24 -23 24 -20 -9 35 -20 33 -60 83 -88 110 -85
81 -92 93 -30 59 63 -35 121 -87 144 -131 10 -19 34 -40 60 -53 42 -20 42 -21
18 -1 -14 11 -28 21 -32 21 -4 0 -19 21 -33 48 -15 26 -45 62 -68 81 -23 19
-35 31 -27 28 8 -3 32 -11 54 -18 21 -7 62 -34 90 -59 69 -61 97 -81 63 -43
l-28 30 28 -5 c15 -2 37 -12 48 -21 12 -9 8 -4 -7 12 -16 15 -36 27 -46 27
-10 0 -36 18 -57 40 -21 22 -48 40 -60 40 -11 0 -28 7 -38 14 -16 12 -16 14
-1 20 31 12 48 6 98 -36 27 -24 46 -36 41 -29 -6 11 -4 13 8 8 11 -4 17 -1 17
8 0 21 39 19 63 -3 19 -16 20 -16 8 6 -11 20 -9 22 12 22 14 0 32 -10 41 -22
10 -15 14 -17 10 -5 -5 14 0 17 32 18 36 1 35 2 -16 11 -30 6 -81 9 -112 8
-58 -1 -86 8 -122 41 -22 21 -70 25 -112 9 -19 -8 -36 -7 -61 2 -42 15 -78 84
-88 170 -4 34 -11 55 -17 52 -7 -4 -7 0 0 12 5 11 13 41 16 67 11 70 58 168
99 204 42 37 127 58 194 49 23 -3 75 -22 114 -41 39 -20 73 -34 75 -32 5 5
-168 87 -184 87 -29 0 -8 19 32 29 60 15 62 14 35 -8 l-23 -18 23 -8 c14 -4
31 -1 48 10 l26 18 -24 13 c-22 11 -18 12 36 9 56 -4 55 -2 -4 11 -24 5 -24 6
12 35 39 32 83 96 73 106 -3 4 -6 2 -6 -4 0 -6 -9 -22 -21 -37 l-21 -26 -28
30 c-15 16 -35 30 -45 30 -10 0 -13 5 -9 12 5 8 2 9 -9 5 -24 -9 -22 25 2 47
18 17 22 17 43 2 28 -20 58 -20 83 -2 18 13 18 14 -3 27 -25 15 -29 29 -9 29
19 0 60 47 52 59 -12 21 -56 11 -86 -19 -16 -16 -33 -29 -37 -29 -3 0 -8 -5
-10 -13 -3 -10 -1 -10 5 -1 5 7 14 9 22 4 10 -7 8 -11 -10 -16 -13 -5 -24 -7
-24 -6 0 1 -23 -20 -51 -47 -33 -32 -65 -52 -92 -59 -23 -6 -42 -9 -42 -7 0 2
10 33 21 69 15 46 32 75 56 95 18 17 30 30 25 30 -5 0 -15 -7 -22 -15 -24 -29
-32 -16 -26 48 l5 62 -15 -70 c-19 -85 -28 -96 -48 -59 -8 16 -15 22 -16 14 0
-9 7 -26 16 -39 15 -21 15 -26 0 -66 -26 -66 -40 -72 -65 -29 -25 42 -39 41
-16 -2 8 -16 15 -41 15 -55 0 -29 -72 -134 -93 -134 -7 0 -16 35 -24 100 l-13
100 37 37 37 38 24 -30 c27 -35 67 -42 59 -10 -4 17 -1 19 19 14 27 -7 29 -2
14 27 -12 21 -50 26 -50 6 0 -9 -10 -12 -32 -9 l-31 5 34 29 34 30 -35 -23
c-19 -13 -50 -38 -69 -56 -18 -18 -38 -30 -42 -27 -5 3 -9 30 -9 59 0 43 6 65
29 102 35 57 61 143 60 192 -1 30 -3 27 -10 -18 -9 -55 -37 -126 -66 -171
l-17 -25 -7 25 -7 25 -1 -28 c-1 -16 -5 -26 -11 -22 -5 3 -18 -3 -29 -14 -20
-20 -20 -20 -24 7 -2 15 -5 -1 -6 -34 -1 -44 -6 -69 -20 -85 l-18 -23 -13 40
c-29 88 -3 200 49 206 l26 3 -32 31 -31 31 33 12 c34 12 75 53 75 75 0 6 -5 4
-10 -4 -7 -11 -10 -8 -10 16 0 33 -31 71 -50 59 -16 -10 -2 -47 28 -73 l27
-22 -25 -20 c-28 -22 -71 -38 -114 -42 -25 -3 -30 2 -42 37 -8 21 -15 66 -15
100 -2 74 -28 123 -52 98z m140 -284 c14 -17 8 -53 -8 -43 -5 3 -16 19 -25 36
-13 25 -14 32 -2 39 8 5 14 4 17 -4 2 -7 10 -19 18 -28z m-238 -13 c37 -9 49
-19 77 -64 29 -44 34 -61 34 -112 0 -32 -4 -61 -8 -64 -5 -3 -24 11 -43 30
-19 20 -43 40 -53 46 -11 6 6 -16 37 -48 l56 -58 -6 -70 c-6 -85 -16 -129 -28
-132 -15 -5 -95 106 -95 130 0 12 9 39 19 59 11 22 15 37 8 34 -7 -2 -19 -17
-27 -33 -8 -16 -16 -31 -17 -33 -2 -2 -9 2 -18 9 -21 17 -19 40 3 40 23 0 66
45 57 59 -11 19 -36 12 -65 -19 -26 -28 -28 -29 -33 -9 -3 11 1 37 9 57 l15
37 -20 -25 c-22 -28 -23 -26 -39 53 -9 45 -9 48 17 60 16 7 30 25 36 45 7 24
13 31 25 26 8 -4 35 -12 59 -18z m380 -308 c1 -30 -15 -36 -39 -15 -8 6 -3 -1
11 -18 22 -25 28 -43 32 -106 6 -76 6 -77 -28 -121 -45 -57 -85 -156 -86 -210
-1 -40 -2 -39 -15 24 -13 60 -13 75 1 140 36 163 39 198 27 272 -11 62 -10 77
5 117 10 25 23 44 29 42 6 -2 17 4 25 13 12 14 15 9 26 -47 6 -35 12 -76 12
-91z m-216 12 c-31 -47 -56 -53 -51 -12 2 20 9 28 28 30 14 2 29 8 35 13 17
17 14 9 -12 -31z m545 -7 c-56 -14 23 -77 87 -69 l40 4 -35 -29 c-43 -37 -135
-66 -237 -75 l-77 -7 20 29 c10 16 30 46 44 67 16 24 37 41 60 47 19 6 46 17
60 25 14 8 32 14 40 13 10 0 10 -2 -2 -5z"/>
<path d="M732 1388 c-5 -7 -12 -33 -15 -58 -3 -25 -4 -37 -1 -27 3 9 11 17 19
17 17 0 32 19 40 53 6 23 4 27 -13 27 -11 0 -24 -6 -30 -12z"/>
<path d="M657 1362 c-18 -20 -23 -72 -7 -72 19 0 50 40 50 65 0 30 -20 33 -43
7z"/>
<path d="M770 1316 c0 -29 32 -72 60 -79 17 -4 20 0 20 27 0 21 -8 40 -23 54
-31 29 -57 29 -57 -2z"/>
<path d="M777 1152 c-18 -20 -23 -57 -8 -67 12 -7 51 43 51 66 0 24 -22 24
-43 1z"/>
<path d="M796 1078 c-18 -25 -21 -54 -6 -63 15 -9 50 32 50 60 0 31 -23 33
-44 3z"/>
<path d="M1060 1172 c0 -24 28 -62 46 -62 16 0 19 33 4 61 -14 24 -50 25 -50
1z"/>
<path d="M1060 1054 c0 -11 23 -49 34 -56 34 -23 51 16 20 46 -15 15 -54 22
-54 10z"/>
<path d="M1070 967 c0 -22 31 -57 51 -57 23 0 24 18 3 48 -16 24 -54 30 -54 9z"/>
<path d="M1056 908 c-18 -25 -20 -46 -7 -67 15 -23 41 5 41 45 0 42 -14 51
-34 22z"/>
<path d="M1370 1049 c0 -21 58 -69 84 -69 33 0 35 31 4 60 -23 21 -88 28 -88
9z"/>
<path d="M1320 1027 c0 -20 30 -57 46 -57 16 0 11 33 -8 58 -13 16 -38 16 -38
-1z"/>
<path d="M940 1690 c-21 -21 -28 -70 -10 -70 19 0 50 40 50 65 0 30 -13 32
-40 5z"/>
<path d="M1116 1688 c-18 -26 -20 -56 -6 -78 9 -13 13 -12 30 9 20 24 25 47
14 75 -8 22 -20 20 -38 -6z"/>
<path d="M1425 1678 c-14 -21 -14 -24 4 -32 24 -10 74 13 79 37 6 28 -62 23
-83 -5z"/>
<path d="M806 1674 c-16 -15 -22 -65 -9 -77 13 -14 43 27 43 60 0 36 -10 41
-34 17z"/>
<path d="M1179 1678 c-3 -31 4 -54 21 -72 38 -39 55 12 19 58 -22 28 -38 34
-40 14z"/>
<path d="M1531 1662 c-14 -26 -14 -52 -1 -72 9 -13 12 -12 25 4 19 25 19 47 1
71 -13 18 -14 18 -25 -3z"/>
<path d="M355 1660 c-4 -6 7 -24 24 -40 22 -22 39 -30 65 -30 44 0 45 12 7 51
-30 29 -83 40 -96 19z"/>
<path d="M700 1640 c0 -19 8 -34 22 -44 32 -22 48 -20 48 7 0 25 -22 49 -52
60 -15 5 -18 1 -18 -23z"/>
<path d="M1282 1647 c-23 -10 -37 -43 -30 -71 5 -24 49 3 61 37 11 35 0 48
-31 34z"/>
<path d="M1345 1635 c-28 -28 -32 -53 -9 -62 21 -8 64 35 64 64 0 30 -24 30
-55 -2z"/>
<path d="M493 1624 c-8 -23 35 -64 69 -64 32 0 33 2 16 33 -23 44 -73 63 -85
31z"/>
<path d="M621 1604 c-27 -34 -27 -64 -2 -64 24 0 51 36 51 67 0 31 -24 29 -49
-3z"/>
<path d="M1471 1612 c-14 -27 -14 -85 1 -100 32 -32 54 62 24 103 -13 18 -14
18 -25 -3z"/>
<path d="M1608 1619 c-29 -17 -22 -39 13 -39 38 0 69 16 69 35 0 18 -55 20
-82 4z"/>
<path d="M967 1608 c-24 -13 -40 -55 -28 -75 7 -14 12 -13 35 10 39 39 33 88
-7 65z"/>
<path d="M1011 1576 c-16 -19 -10 -71 8 -71 21 0 35 29 27 58 -7 30 -18 34
-35 13z"/>
<path d="M1150 1569 c0 -32 19 -59 40 -59 24 0 26 27 4 58 -19 28 -44 29 -44
1z"/>
<path d="M1371 1571 c-13 -23 -14 -71 -3 -89 16 -24 44 21 40 64 -3 43 -21 55
-37 25z"/>
<path d="M412 1568 c-32 -16 -24 -42 15 -46 32 -3 73 12 73 27 0 8 -45 32 -58
30 -4 0 -17 -5 -30 -11z"/>
<path d="M700 1557 c0 -19 43 -57 63 -57 23 0 21 26 -3 50 -23 23 -60 27 -60
7z"/>
<path d="M1555 1557 c-10 -8 -15 -19 -11 -25 9 -15 65 -15 86 -2 13 9 12 12
-4 25 -25 19 -47 19 -71 2z"/>
<path d="M670 1531 c-6 -13 -9 -33 -6 -45 5 -20 4 -20 -15 3 -10 13 -19 19
-19 14 0 -5 9 -19 21 -32 20 -21 22 -21 40 -5 22 20 24 43 5 69 -13 18 -14 18
-26 -4z"/>
<path d="M276 1527 c-17 -13 -17 -15 10 -36 22 -17 37 -21 63 -17 48 8 57 20
32 45 -24 24 -78 28 -105 8z"/>
<path d="M500 1530 c0 -21 49 -60 75 -60 31 0 32 20 2 48 -24 23 -77 30 -77
12z"/>
<path d="M1259 1521 l-24 -19 28 -11 c29 -11 77 0 77 19 0 6 -12 15 -26 20
-32 13 -28 13 -55 -9z"/>
<path d="M1650 1512 c-28 -23 -19 -42 21 -42 31 0 74 34 64 50 -10 16 -61 11
-85 -8z"/>
<path d="M1130 1491 c0 -45 43 -81 56 -47 7 19 -11 53 -36 66 -18 10 -20 7
-20 -19z"/>
<path d="M1416 1488 c-29 -40 -15 -108 14 -73 9 11 17 12 32 4 27 -14 84 6
105 38 14 21 14 26 2 34 -19 13 -59 2 -86 -23 l-23 -21 0 31 c0 38 -21 43 -44
10z"/>
<path d="M128 1493 c-14 -3 -15 -8 -6 -28 12 -26 47 -45 83 -45 31 0 31 12 3
44 -24 26 -52 36 -80 29z"/>
<path d="M433 1493 c-10 -3 -9 -11 2 -33 17 -33 88 -61 106 -43 32 32 -60 96
-108 76z"/>
<path d="M245 1459 c-7 -22 19 -69 43 -77 20 -6 26 46 8 73 -20 31 -42 32 -51
4z"/>
<path d="M1050 1472 c0 -18 32 -50 55 -54 31 -6 35 20 7 45 -19 17 -62 23 -62
9z"/>
<path d="M1240 1462 c0 -24 28 -62 46 -62 20 0 18 44 -4 63 -24 22 -42 22 -42
-1z"/>
<path d="M1809 1467 c-26 -20 -41 -57 -35 -83 6 -21 9 -23 26 -14 32 17 53 57
46 85 -7 28 -14 30 -37 12z"/>
<path d="M577 1442 c-21 -23 -22 -62 -3 -62 8 0 22 10 30 22 33 46 9 80 -27
40z"/>
<path d="M1330 1437 c0 -25 28 -57 48 -57 17 0 15 32 -4 58 -20 29 -44 28 -44
-1z"/>
<path d="M348 1443 c-24 -6 -23 -18 4 -43 23 -21 63 -26 88 -10 33 20 -46 66
-92 53z"/>
<path d="M1690 1403 c-27 -34 -24 -79 5 -75 28 4 65 48 65 78 0 34 -42 33 -70
-3z"/>
<path d="M1063 1402 c-13 -2 -30 -13 -38 -25 -14 -20 -13 -22 6 -29 23 -9 73
13 82 36 6 16 -15 24 -50 18z"/>
<path d="M170 1390 c0 -21 41 -50 71 -50 31 0 32 7 1 43 -16 18 -72 24 -72 7z"/>
<path d="M478 1392 c-43 -9 6 -69 64 -78 44 -8 54 6 28 39 -22 27 -65 46 -92
39z"/>
<path d="M1230 1377 c0 -25 28 -57 48 -57 17 0 15 32 -4 58 -20 29 -44 28 -44
-1z"/>
<path d="M1570 1380 c-25 -25 -18 -40 18 -40 32 0 72 25 72 46 0 22 -66 18
-90 -6z"/>
<path d="M1445 1365 c-29 -28 -31 -43 -10 -51 36 -14 105 26 105 61 0 26 -67
19 -95 -10z"/>
<path d="M1305 1370 c-9 -15 3 -45 26 -66 17 -15 22 -16 29 -4 14 23 -15 79
-42 80 -4 0 -10 -5 -13 -10z"/>
<path d="M305 1350 c-17 -19 -17 -20 10 -30 45 -17 106 10 84 36 -17 21 -73
17 -94 -6z"/>
<path d="M1809 1344 c-10 -13 -10 -17 2 -25 19 -12 46 -11 70 2 16 8 18 13 8
25 -15 19 -63 18 -80 -2z"/>
<path d="M126 1323 c-28 -15 -29 -16 -11 -29 26 -20 59 -17 86 6 21 17 22 21
9 30 -21 14 -50 12 -84 -7z"/>
<path d="M1000 1311 c-12 -30 -1 -71 19 -71 23 0 28 72 7 89 -11 9 -16 5 -26
-18z"/>
<path d="M1175 1315 c-16 -15 -25 -36 -25 -55 0 -37 9 -38 49 -4 22 18 31 35
31 55 0 36 -22 38 -55 4z"/>
<path d="M1517 1310 c-14 -11 -29 -29 -32 -40 -4 -11 -12 -20 -19 -20 -8 0
-19 -7 -26 -15 -10 -12 -8 -16 14 -25 16 -6 35 -6 50 0 13 5 27 6 31 2 4 -4 3
3 -4 15 -6 12 -16 24 -23 26 -7 3 -2 6 12 6 34 1 70 28 70 52 0 26 -39 25 -73
-1z"/>
<path d="M1734 1300 c-47 -19 -73 -90 -33 -90 31 0 57 18 74 51 23 44 8 59
-41 39z"/>
<path d="M230 1280 c0 -29 44 -70 74 -70 23 0 24 2 14 30 -18 52 -88 84 -88
40z"/>
<path d="M330 1282 c0 -22 30 -52 51 -52 8 -1 -1 -7 -20 -15 -23 -10 -31 -20
-27 -30 4 -11 -2 -15 -28 -15 -35 0 -62 -21 -51 -40 12 -19 63 -11 82 13 26
32 51 25 45 -14 -3 -22 -7 -27 -13 -18 -5 8 -9 10 -9 4 0 -19 18 -39 39 -42
27 -4 37 31 17 62 -20 30 -20 35 -1 35 21 0 31 30 14 41 -12 7 -12 10 -1 18
11 7 12 12 1 29 -25 40 -99 58 -99 24z"/>
<path d="M1874 1288 c-10 -15 24 -38 57 -38 35 0 48 19 24 37 -23 16 -71 17
-81 1z"/>
<path d="M46 1245 c-7 -20 2 -45 27 -72 26 -29 47 -29 47 0 0 44 -61 104 -74
72z"/>
<path d="M1788 1245 c-27 -15 -48 -43 -48 -64 0 -6 16 -11 36 -11 26 0 43 8
66 30 16 17 28 36 26 43 -6 18 -49 19 -80 2z"/>
<path d="M170 1222 c0 -18 48 -52 73 -52 32 0 34 9 7 38 -20 21 -80 32 -80 14z"/>
<path d="M1190 1152 c0 -32 25 -72 46 -72 23 0 17 54 -9 78 -30 29 -37 28 -37
-6z"/>
<path d="M1657 1163 c-4 -3 0 -15 10 -25 16 -18 48 -23 78 -12 14 6 14 8 -1
25 -17 18 -73 26 -87 12z"/>
<path d="M1789 1151 l-24 -20 38 -15 c62 -27 132 5 85 38 -30 22 -71 20 -99
-3z"/>
<path d="M131 1143 c-23 -15 -23 -17 -6 -30 11 -7 30 -13 43 -13 l23 0 -20
-26 c-25 -32 -20 -44 20 -44 29 0 79 37 79 60 0 10 -21 14 -50 10 -12 -2 -12
2 3 17 16 19 16 20 -8 31 -35 16 -56 15 -84 -5z"/>
<path d="M1570 1139 c0 -4 -3 -15 -6 -24 -10 -26 45 -15 64 13 15 22 14 23
-22 20 -20 -1 -36 -5 -36 -9z"/>
<path d="M23 1123 c-10 -26 41 -63 88 -63 36 0 39 2 29 19 -27 51 -103 80
-117 44z"/>
<path d="M1538 1133 c7 -3 16 -2 19 1 4 3 -2 6 -13 5 -11 0 -14 -3 -6 -6z"/>
<path d="M297 1103 c-4 -3 -7 -21 -7 -38 0 -34 43 -89 64 -82 27 9 18 75 -14
107 -21 21 -32 24 -43 13z"/>
<path d="M1662 1087 c-25 -26 -37 -76 -24 -96 24 -34 88 49 75 97 -7 28 -24
28 -51 -1z"/>
<path d="M1748 1103 c-14 -3 -15 -8 -6 -28 5 -12 20 -27 32 -33 20 -9 20 -10
-9 -22 -16 -6 -38 -21 -49 -32 -19 -20 -19 -20 2 -14 11 4 23 2 27 -4 10 -15
78 -12 103 6 21 14 24 14 53 -10 36 -31 79 -35 79 -8 0 41 -89 90 -107 59 -7
-13 -11 -14 -33 -2 -19 11 -21 14 -7 15 24 0 21 23 -5 47 -26 23 -55 33 -80
26z"/>
<path d="M1170 1072 c0 -26 34 -72 53 -72 15 0 6 68 -11 83 -27 25 -42 21 -42
-11z"/>
<path d="M1871 1086 c-22 -27 41 -54 83 -35 25 12 25 13 10 31 -20 21 -76 24
-93 4z"/>
<path d="M515 1055 c-28 -27 -31 -43 -11 -51 27 -10 85 33 86 64 0 21 -50 13
-75 -13z"/>
<path d="M596 1038 c-18 -25 -21 -54 -6 -63 15 -9 50 32 50 60 0 31 -23 33
-44 3z"/>
<path d="M650 1016 c0 -25 23 -56 41 -56 18 0 21 30 5 55 -21 32 -46 33 -46 1z"/>
<path d="M880 1002 c0 -25 25 -62 42 -62 13 0 17 33 6 53 -23 44 -48 48 -48 9z"/>
<path d="M180 1000 c-35 -24 53 -54 89 -31 12 8 12 12 2 25 -15 18 -68 21 -91
6z"/>
<path d="M80 961 c0 -11 3 -27 6 -36 8 -19 61 -48 78 -42 7 3 18 -4 24 -14 11
-17 9 -19 -11 -19 -22 0 -47 -16 -47 -31 0 -4 13 -12 29 -19 35 -14 76 2 67
26 -4 11 0 13 19 8 22 -5 25 -3 25 21 0 32 -49 85 -79 85 -15 0 -21 -7 -21
-22 -1 -20 -2 -19 -14 7 -7 17 -25 36 -40 43 -35 16 -36 15 -36 -7z"/>
<path d="M338 963 c6 -2 18 -2 25 0 6 3 1 5 -13 5 -14 0 -19 -2 -12 -5z"/>
<path d="M1643 963 c9 -2 23 -2 30 0 6 3 -1 5 -18 5 -16 0 -22 -2 -12 -5z"/>
<path d="M277 938 c-11 -39 32 -108 67 -108 3 0 6 17 6 39 0 64 -60 121 -73
69z"/>
<path d="M1692 953 c-34 -13 -59 -123 -28 -123 26 0 67 60 64 93 -3 31 -13 39
-36 30z"/>
<path d="M461 941 c-12 -8 -12 -12 -2 -25 21 -25 81 -18 81 9 0 23 -52 33 -79
16z"/>
<path d="M877 931 c-5 -22 12 -62 31 -69 20 -6 14 53 -7 72 -17 16 -19 16 -24
-3z"/>
<path d="M361 916 c18 -38 89 -63 89 -31 0 25 -38 55 -70 55 -28 0 -29 -2 -19
-24z"/>
<path d="M1572 917 c-29 -31 -28 -47 3 -47 26 0 75 39 75 60 0 19 -56 10 -78
-13z"/>
<path d="M1783 930 c-23 -9 -53 -57 -53 -85 0 -44 98 17 102 65 3 27 -14 34
-49 20z"/>
<path d="M942 900 c-25 -41 -7 -85 24 -59 16 13 16 70 -1 76 -6 2 -16 -6 -23
-17z"/>
<path d="M1870 895 c0 -29 40 -75 65 -75 24 0 18 48 -10 75 -32 33 -55 32 -55
0z"/>
<path d="M1405 880 c-7 -23 18 -76 44 -90 28 -15 31 -13 31 18 0 31 -22 67
-50 82 -15 8 -20 6 -25 -10z"/>
<path d="M552 867 c-13 -14 -22 -36 -22 -55 0 -31 1 -32 23 -21 31 17 46 40
47 72 0 33 -19 35 -48 4z"/>
<path d="M631 864 c-24 -30 -27 -72 -8 -98 13 -17 15 -17 36 10 16 20 21 39
19 68 -4 49 -19 55 -47 20z"/>
<path d="M1325 861 c-4 -19 -1 -42 10 -65 23 -47 41 -52 54 -14 9 25 8 38 -6
67 -23 47 -49 52 -58 12z"/>
<path d="M700 855 c0 -26 39 -75 60 -75 17 0 11 46 -11 74 -26 33 -49 34 -49
1z"/>
<path d="M1265 856 c-28 -28 -35 -86 -11 -86 20 0 56 48 56 76 0 34 -17 38
-45 10z"/>
<path d="M461 834 c-40 -29 -52 -104 -16 -104 21 0 55 50 55 81 0 36 -11 42
-39 23z"/>
<path d="M1510 812 c0 -44 23 -82 51 -82 30 0 26 64 -6 95 -34 35 -45 31 -45
-13z"/>
<path d="M1801 838 c-36 -13 -23 -42 20 -46 36 -3 67 17 55 36 -9 14 -50 20
-75 10z"/>
<path d="M792 818 c-17 -17 -15 -60 3 -84 15 -19 15 -19 30 0 18 23 18 36 5
70 -11 29 -20 32 -38 14z"/>
<path d="M1176 788 c-14 -33 -8 -79 12 -86 20 -6 44 62 32 93 -13 34 -28 32
-44 -7z"/>
<path d="M1648 813 c7 -3 16 -2 19 1 4 3 -2 6 -13 5 -11 0 -14 -3 -6 -6z"/>
<path d="M1748 813 c7 -3 16 -2 19 1 4 3 -2 6 -13 5 -11 0 -14 -3 -6 -6z"/>
<path d="M231 788 c-13 -7 -30 -23 -39 -35 -13 -20 -13 -23 2 -29 35 -14 112
32 103 61 -5 15 -39 17 -66 3z"/>
<path d="M349 787 c-18 -13 -39 -50 -39 -66 0 -20 41 -11 65 14 44 43 22 89
-26 52z"/>
<path d="M1610 776 c0 -25 41 -66 66 -66 24 0 16 47 -12 69 -35 28 -54 27 -54
-3z"/>
<path d="M1715 790 c-15 -24 33 -70 74 -70 42 0 36 42 -10 65 -33 17 -55 19
-64 5z"/>
<path d="M570 768 c-13 -28 3 -82 23 -76 18 7 21 72 3 87 -13 11 -17 9 -26
-11z"/>
<path d="M670 771 c-13 -25 -13 -71 0 -91 23 -34 52 47 34 94 -8 21 -21 20
-34 -3z"/>
<path d="M1400 765 c-12 -32 -3 -75 16 -75 26 0 33 89 7 98 -7 2 -17 -8 -23
-23z"/>
<path d="M125 770 c-25 -10 -40 -28 -49 -57 -6 -19 -4 -23 17 -23 29 0 67 38
67 68 0 24 -4 25 -35 12z"/>
<path d="M500 741 c-33 -32 -41 -81 -15 -81 25 0 65 46 65 74 0 38 -17 40 -50
7z"/>
</g>
</svg>
